<svg width="18" height="18" viewBox="0 0 18 18" fill="none" xmlns="http://www.w3.org/2000/svg">
<path fill-rule="evenodd" clip-rule="evenodd" d="M11.8107 2.63074C11.4747 2.47061 11.1072 2.38751 10.7351 2.38751H4.85256C3.62094 2.38751 2.5728 3.28452 2.38256 4.50136L1.67378 9.03505C1.48414 10.2481 2.42204 11.344 3.64978 11.344H7.32897L7.32897 13.9057C7.32897 14.8477 8.0926 15.6113 9.03459 15.6113C9.65199 15.6113 10.2212 15.2777 10.5228 14.739L12.7576 10.7476C12.883 10.5237 12.9488 10.2714 12.9488 10.0148L12.9488 4.11994C12.9488 3.54157 12.6163 3.01472 12.0942 2.76587L11.8107 2.63074ZM16.1924 3.31009C15.9989 3.11659 15.7365 3.00788 15.4628 3.00788H15.4626L14.9308 3.00811C14.6547 3.00823 14.431 3.23206 14.431 3.50811L14.431 10.0495C14.431 10.1822 14.4837 10.3094 14.5775 10.4032C14.6713 10.4969 14.7986 10.5496 14.9312 10.5495L15.4628 10.5493H15.463C15.7366 10.5493 15.999 10.4406 16.1924 10.2471C16.3859 10.0536 16.4946 9.79116 16.4946 9.51751L16.4946 4.03969C16.4946 3.76604 16.3859 3.5036 16.1924 3.31009Z" fill="#BEBFC2"/>
</svg>
