<svg width="24" height="24" viewBox="0 0 24 24" fill="none" xmlns="http://www.w3.org/2000/svg">
<g id="Star/on">
<path id="Vector" d="M12.7002 3.55661L14.9716 8.14232C15.0233 8.25872 15.1045 8.35954 15.2073 8.43473C15.3101 8.50993 15.4308 8.55688 15.5573 8.5709L20.5716 9.31375C20.7168 9.33241 20.8537 9.392 20.9663 9.48555C21.0789 9.57909 21.1625 9.70274 21.2074 9.84206C21.2524 9.98137 21.2568 10.1306 21.2201 10.2723C21.1834 10.414 21.1071 10.5423 21.0002 10.6423L17.3859 14.228C17.2937 14.3142 17.2244 14.4221 17.1845 14.5419C17.1446 14.6616 17.1352 14.7895 17.1573 14.9138L18.0288 19.9566C18.054 20.1015 18.038 20.2506 17.9827 20.3869C17.9274 20.5232 17.835 20.6412 17.7159 20.7275C17.5968 20.8139 17.4559 20.865 17.3091 20.8752C17.1624 20.8854 17.0158 20.8542 16.8859 20.7852L12.3716 18.3995C12.256 18.3427 12.129 18.3132 12.0002 18.3132C11.8714 18.3132 11.7444 18.3427 11.6288 18.3995L7.11447 20.7852C6.9846 20.8542 6.83795 20.8854 6.69122 20.8752C6.54449 20.865 6.40357 20.8139 6.28449 20.7275C6.16541 20.6412 6.07296 20.5232 6.01764 20.3869C5.96233 20.2506 5.94638 20.1015 5.97162 19.9566L6.84304 14.8566C6.86513 14.7323 6.85579 14.6045 6.81587 14.4847C6.77595 14.365 6.70672 14.2571 6.61447 14.1709L2.95733 10.6423C2.84913 10.5396 2.77304 10.4077 2.73828 10.2626C2.70351 10.1175 2.71156 9.9655 2.76145 9.82489C2.81134 9.68429 2.90094 9.56117 3.01937 9.47045C3.13781 9.37973 3.28002 9.3253 3.42876 9.31375L8.44304 8.5709C8.56961 8.55688 8.6903 8.50993 8.79306 8.43473C8.89583 8.35954 8.9771 8.25872 9.02876 8.14232L11.3002 3.55661C11.362 3.42305 11.4608 3.30997 11.5849 3.23073C11.7089 3.15148 11.853 3.10938 12.0002 3.10938C12.1474 3.10938 12.2915 3.15148 12.4155 3.23073C12.5396 3.30997 12.6383 3.42305 12.7002 3.55661Z" fill="#FFB72C" stroke="#FFB72C" stroke-width="0.736842" stroke-linecap="round" stroke-linejoin="round"/>
</g>
</svg>
