<svg width="18" height="18" viewBox="0 0 18 18" fill="none" xmlns="http://www.w3.org/2000/svg">
<path fill-rule="evenodd" clip-rule="evenodd" d="M6.27038 15.3693C6.60635 15.5294 6.97382 15.6125 7.346 15.6125L13.2285 15.6125C14.4601 15.6125 15.5083 14.7155 15.6985 13.4986L16.4073 8.96495C16.5969 7.75195 15.659 6.65603 14.4313 6.65603L10.7521 6.65603V4.0943C10.7521 3.15231 9.98846 2.38867 9.04646 2.38867C8.42907 2.38867 7.85987 2.72231 7.55824 3.26101L5.32342 7.25235C5.19805 7.47625 5.13222 7.72857 5.13222 7.98517L5.13222 13.8801C5.13222 14.4584 5.46474 14.9853 5.98685 15.2341L6.27038 15.3693ZM1.88864 14.6899C2.08214 14.8834 2.34458 14.9921 2.61823 14.9921H2.61845L3.15026 14.9919C3.42632 14.9918 3.65004 14.7679 3.65004 14.4919L3.65004 7.95046C3.65004 7.81781 3.59733 7.6906 3.50352 7.59683C3.40971 7.50305 3.28247 7.4504 3.14983 7.45046L2.61823 7.45069H2.61802C2.34445 7.45074 2.08209 7.55944 1.88864 7.75289C1.69513 7.9464 1.58643 8.20884 1.58643 8.48249L1.58643 13.9603C1.58643 14.234 1.69513 14.4964 1.88864 14.6899Z" fill="#BEBFC2"/>
</svg>
