<svg width="10" height="10" viewBox="0 0 10 10" fill="none" xmlns="http://www.w3.org/2000/svg">
<g id="Star/on">
<path id="Vector" d="M5.29172 1.48127L6.23815 3.39198C6.25968 3.44048 6.29354 3.48249 6.33636 3.51382C6.37918 3.54515 6.42946 3.56471 6.4822 3.57056L8.57149 3.88008C8.63198 3.88785 8.68901 3.91268 8.73593 3.95166C8.78284 3.99064 8.81769 4.04216 8.83642 4.10021C8.85514 4.15825 8.85696 4.22043 8.84167 4.27947C8.82638 4.33852 8.79461 4.39199 8.75006 4.43365L7.24411 5.9277C7.20567 5.96361 7.17682 6.00856 7.16019 6.05846C7.14356 6.10836 7.13966 6.16162 7.14887 6.21341L7.51196 8.3146C7.52248 8.37498 7.51583 8.43709 7.49278 8.49388C7.46974 8.55067 7.43121 8.59984 7.3816 8.63581C7.33198 8.67179 7.27326 8.69311 7.21212 8.69736C7.15099 8.70161 7.08989 8.68861 7.03577 8.65984L5.15482 7.66579C5.10666 7.64215 5.05371 7.62986 5.00006 7.62986C4.9464 7.62986 4.89346 7.64215 4.8453 7.66579L2.96434 8.65984C2.91023 8.68861 2.84913 8.70161 2.78799 8.69736C2.72685 8.69311 2.66814 8.67179 2.61852 8.63581C2.5689 8.59984 2.53038 8.55067 2.50733 8.49388C2.48428 8.43709 2.47764 8.37498 2.48815 8.3146L2.85125 6.1896C2.86045 6.13782 2.85656 6.08455 2.83992 6.03465C2.82329 5.98475 2.79444 5.9398 2.75601 5.90389L1.2322 4.43365C1.18712 4.39085 1.15541 4.3359 1.14093 4.27545C1.12644 4.21499 1.1298 4.15164 1.15059 4.09305C1.17137 4.03447 1.2087 3.98317 1.25805 3.94537C1.3074 3.90757 1.36665 3.88489 1.42863 3.88008L3.51792 3.57056C3.57065 3.56471 3.62094 3.54515 3.66376 3.51382C3.70658 3.48249 3.74044 3.44048 3.76196 3.39198L4.70839 1.48127C4.73416 1.42562 4.77532 1.3785 4.827 1.34549C4.87868 1.31247 4.93873 1.29492 5.00006 1.29492C5.06139 1.29492 5.12143 1.31247 5.17311 1.34549C5.2248 1.3785 5.26595 1.42562 5.29172 1.48127Z" fill="#4284F4" stroke="#4284F4" stroke-width="0.263158" stroke-linecap="round" stroke-linejoin="round"/>
</g>
</svg>
