<svg width="32" height="32" viewBox="0 0 32 32" fill="none" xmlns="http://www.w3.org/2000/svg">
<g id="Week">
<path id="Vector" d="M5.52366 6.47656C5.01848 6.47656 4.534 6.67724 4.17679 7.03445C3.81958 7.39167 3.6189 7.87615 3.6189 8.38132V26.4766C3.6189 26.9817 3.81958 27.4662 4.17679 27.8234C4.534 28.1806 5.01848 28.3813 5.52366 28.3813H26.476C26.9812 28.3813 27.4657 28.1806 27.8229 27.8234C28.1801 27.4662 28.3808 26.9817 28.3808 26.4766V8.38132C28.3808 7.87615 28.1801 7.39167 27.8229 7.03445C27.4657 6.67724 26.9812 6.47656 26.476 6.47656H22.6665" stroke="#4284F4" stroke-width="1.2" stroke-linecap="round" stroke-linejoin="round"/>
<path id="Vector_2" d="M9.33325 3.61914V9.33343" stroke="#4284F4" stroke-width="1.2" stroke-linecap="round" stroke-linejoin="round"/>
<path id="Vector_3" d="M22.6667 3.61914V9.33343" stroke="#4284F4" stroke-width="1.2" stroke-linecap="round" stroke-linejoin="round"/>
<path id="Vector_4" d="M9.33325 6.47656H18.8571" stroke="#4284F4" stroke-width="1.2" stroke-linecap="round" stroke-linejoin="round"/>
<path id="Vector_5" d="M16.4736 11.5286L18.0672 14.7342C18.1028 14.8153 18.1593 14.8855 18.231 14.9375C18.3026 14.9896 18.3867 15.0218 18.4749 15.0307L22.014 15.5681C22.1152 15.5812 22.2105 15.6229 22.2889 15.6883C22.3673 15.7536 22.4254 15.84 22.4565 15.9371C22.4876 16.0343 22.4904 16.1384 22.4645 16.2371C22.4387 16.3358 22.3852 16.4251 22.3105 16.4945L19.6978 18.9775C19.6589 19.0518 19.6385 19.1345 19.6385 19.2184C19.6385 19.3023 19.6589 19.385 19.6978 19.4593L20.1981 22.9799C20.2195 23.0817 20.2108 23.1875 20.1733 23.2844C20.1357 23.3814 20.0708 23.4653 19.9864 23.5261C19.9021 23.5869 19.8019 23.622 19.6981 23.627C19.5942 23.632 19.4911 23.6068 19.4013 23.5543L16.2513 21.8867C16.1698 21.8498 16.0813 21.8308 15.9919 21.8308C15.9024 21.8308 15.814 21.8498 15.7325 21.8867L12.5824 23.5543C12.4926 23.6068 12.3895 23.632 12.2857 23.627C12.1818 23.622 12.0816 23.5869 11.9973 23.5261C11.913 23.4653 11.8481 23.3814 11.8105 23.2844C11.7729 23.1875 11.7643 23.0817 11.7856 22.9799L12.3786 19.4593C12.4041 19.3776 12.409 19.2908 12.3928 19.2068C12.3766 19.1227 12.3399 19.0439 12.2859 18.9775L9.67325 16.476C9.60395 16.4058 9.55531 16.3179 9.53267 16.2219C9.51002 16.1259 9.51423 16.0255 9.54485 15.9317C9.57547 15.8379 9.63131 15.7544 9.70626 15.6902C9.7812 15.6261 9.87235 15.5838 9.96973 15.5681L13.5089 15.0492C13.597 15.0403 13.6812 15.0082 13.7528 14.9561C13.8244 14.904 13.8809 14.8338 13.9166 14.7527L15.5101 11.5471C15.5527 11.4564 15.6199 11.3794 15.704 11.3248C15.7882 11.2702 15.8859 11.2403 15.9861 11.2384C16.0864 11.2365 16.1851 11.2626 16.2713 11.3139C16.3575 11.3652 16.4276 11.4395 16.4736 11.5286Z" fill="#4284F4" stroke="#4284F4" stroke-width="1.2" stroke-linecap="round" stroke-linejoin="round"/>
</g>
</svg>
